#define play_width 15
#define play_height 15
static unsigned char play_bits[] = {
   0x00, 0x00, 0x04, 0x00, 0x1e, 0x00, 0x7e, 0x00, 0xfe, 0x01, 0xfe, 0x07,
   0xfe, 0x1f, 0xfe, 0x3f, 0xfe, 0x1f, 0xfe, 0x07, 0xfe, 0x01, 0x7e, 0x00,
   0x1e, 0x00, 0x04, 0x00, 0x00, 0x00 };
