#define hi_width 15
#define hi_height 15
static unsigned char hi_bits[] = {
   0x00, 0x00, 0x00, 0x03, 0x00, 0x03, 0x80, 0x03, 0x80, 0x03, 0xc0, 0x01,
   0xe0, 0x1f, 0xf0, 0x3f, 0xfe, 0x3f, 0xfe, 0x3f, 0xfe, 0x1f, 0xfe, 0x1f,
   0xfe, 0x0f, 0x80, 0x07, 0x00, 0x00 };
