#define thumbsdown_width 15
#define thumbsdown_height 15
static unsigned char thumbsdown_bits[] = {
   0x00, 0x00, 0xf0, 0x00, 0xf8, 0x3f, 0xfc, 0x3f, 0xfc, 0x3f, 0xfe, 0x3f,
   0xfe, 0x3f, 0xfe, 0x07, 0xfc, 0x03, 0xc0, 0x01, 0xe0, 0x00, 0xe0, 0x00,
   0x60, 0x00, 0x60, 0x00, 0x00, 0x00 };
