#define pause_width 15
#define pause_height 15
static unsigned char pause_bits[] = {
   0x00, 0x00, 0x00, 0x00, 0x38, 0x0e, 0x38, 0x0e, 0x38, 0x0e, 0x38, 0x0e,
   0x38, 0x0e, 0x38, 0x0e, 0x38, 0x0e, 0x38, 0x0e, 0x38, 0x0e, 0x38, 0x0e,
   0x38, 0x0e, 0x00, 0x00, 0x00, 0x00 };
