#define skip_width 15
#define skip_height 15
static unsigned char skip_bits[] = {
   0x00, 0x00, 0x00, 0x00, 0x00, 0x00, 0x00, 0x00, 0x86, 0x21, 0x8e, 0x23,
   0x9e, 0x27, 0xbe, 0x2f, 0x9e, 0x27, 0x8e, 0x23, 0x86, 0x21, 0x00, 0x00,
   0x00, 0x00, 0x00, 0x00, 0x00, 0x00 };
